Coordinates
version=1
nRows=8
nColumns=40
inDegrees=yes

Units are S.I. units (second, meters, Newtons, ...)
If the header above contains a line with 'inDegrees', this indicates whether rotational values are in degrees (yes) or radians (no).

endheader
time	pelvis_tilt	pelvis_list	pelvis_rotation	pelvis_tx	pelvis_ty	pelvis_tz	hip_flexion_r	hip_adduction_r	hip_rotation_r	knee_angle_r	knee_angle_r_beta	ankle_angle_r	subtalar_angle_r	mtp_angle_r	hip_flexion_l	hip_adduction_l	hip_rotation_l	knee_angle_l	knee_angle_l_beta	ankle_angle_l	subtalar_angle_l	mtp_angle_l	lumbar_extension	lumbar_bending	lumbar_rotation	arm_flex_r	arm_add_r	arm_rot_r	elbow_flex_r	pro_sup_r	wrist_flex_r	wrist_dev_r	arm_flex_l	arm_add_l	arm_rot_l	elbow_flex_l	pro_sup_l	wrist_flex_l	wrist_dev_l
      0.23000000	     -3.59385716	     -3.13809949	     -0.67647062	      0.92776416	      1.02421546	     -0.50322439	     28.70202769	      1.45673891	     -6.08571273	     26.91351983	      0.46972953	      1.15284779	      0.00000000	      0.00000000	      0.94523863	    -10.81934660	    -15.09022059	     48.38870099	      0.84454215	     -8.96225788	      0.00000000	      0.00000000	     -6.46265757	      5.89111656	      4.09458285	    -20.21690265	     -3.44752398	    -24.89598510	     41.34476583	     67.24523918	      0.00000000	      0.00000000	     -3.95890225	     -5.00405102	      0.92474185	     62.92661272	     74.65713785	      0.00000000	      0.00000000
      0.24000000	     -3.74706600	     -3.89138444	     -0.60804056	      0.92784252	      1.02480141	     -0.50165064	     28.14446810	      2.25969647	     -6.47459805	     27.08656643	      0.47274977	      1.82036187	      0.00000000	      0.00000000	      3.33807009	    -12.40886815	    -14.30780441	     52.36235895	      0.91389557	    -11.28364028	      0.00000000	      0.00000000	     -6.25914582	      6.68490208	      4.58660658	    -19.93822543	     -3.64657055	    -25.02511610	     42.05381196	     67.41002180	      0.00000000	      0.00000000	     -4.01688852	     -4.73794445	      1.26939696	     61.14476111	     74.32513268	      0.00000000	      0.00000000
      0.25000000	     -3.82933267	     -4.47660786	     -0.56380810	      0.92785065	      1.02549518	     -0.50015210	     27.50399234	      2.93072746	     -6.66314059	     27.26718229	      0.47590211	      2.75690356	      0.00000000	      0.00000000	      5.59120065	    -13.60334809	    -13.31441948	     55.87389415	      0.97518342	    -13.76374032	      0.00000000	      0.00000000	     -6.14775057	      7.26392416	      5.04230511	    -19.55348699	     -3.86417068	    -24.99671723	     42.66962587	     67.45844507	      0.00000000	      0.00000000	     -4.11253416	     -4.50646008	      1.44844457	     59.49059892	     74.13859371	      0.00000000	      0.00000000
      0.26000000	     -4.11031397	     -4.89724185	     -0.42400148	      0.92721056	      1.02596778	     -0.49909510	     27.13421153	      3.37691038	     -6.82148123	     27.46080967	      0.47928154	      3.34284202	      0.00000000	      0.00000000	      8.24344835	    -14.28622825	    -11.79994124	     59.25725111	      1.03423414	    -15.15542216	      0.00000000	      0.00000000	     -5.84322827	      7.71725653	      5.50624092	    -19.16013325	     -4.05021656	    -25.25030834	     43.37154467	     67.39869686	      0.00000000	      0.00000000	     -4.03837704	     -4.29732326	      1.94313195	     57.56318601	     73.86547927	      0.00000000	      0.00000000
      0.27000000	     -4.00769229	     -5.15676975	     -0.31299255	      0.92677991	      1.02725478	     -0.49801184	     26.14111468	      3.74470045	     -6.81577666	     27.30828393	      0.47661947	      4.29328988	      0.00000000	      0.00000000	     10.24108284	    -14.75303310	    -10.66396051	     62.08009204	      1.08350201	    -15.79629950	      0.00000000	      0.00000000	     -5.97458104	      7.91299564	      5.81485683	    -18.52988898	     -4.26324946	    -25.23216157	     43.86653982	     67.28903712	      0.00000000	      0.00000000	     -4.09078465	     -4.03199404	      1.88523907	     55.73011609	     73.66567913	      0.00000000	      0.00000000
      0.28000000	     -3.88892278	     -5.29918823	     -0.24073100	      0.92605703	      1.02872352	     -0.49704834	     25.16860142	      4.00703775	     -6.70861066	     27.19712022	      0.47467929	      4.95194051	      0.00000000	      0.00000000	     12.14636172	    -15.00404613	     -9.67475862	     64.65888841	      1.12851049	    -14.78536334	      0.00000000	      0.00000000	     -6.16441917	      7.98006209	      6.12994510	    -17.76534488	     -4.50366436	    -25.25431934	     44.26595580	     67.16371281	      0.00000000	      0.00000000	     -4.12422143	     -3.78985641	      1.85641358	     53.90764734	     73.56365614	      0.00000000	      0.00000000
      0.29000000	     -3.96291710	     -5.44751339	     -0.13747912	      0.92522405	      1.03010828	     -0.49625572	     24.35451623	      4.24385357	     -6.80728085	     26.95160343	      0.47039422	      5.38371753	      0.00000000	      0.00000000	     14.25692149	    -15.29227237	     -8.88461679	     67.00776930	      1.16950620	    -13.01490099	      0.00000000	      0.00000000	     -6.09565364	      8.07360362	      6.44739128	    -17.08861603	     -4.71453675	    -25.36248433	     44.76262491	     66.96804048	      0.00000000	      0.00000000	     -4.11628219	     -3.48514654	      1.85404514	     51.76143141	     73.53943753	      0.00000000	      0.00000000
      0.30000000	     -3.87849892	     -5.44907848	     -0.11499499	      0.92435649	      1.03191409	     -0.49540865	     23.34825796	      4.39151975	     -6.70303004	     26.67769896	      0.46561368	      5.90810917	      0.00000000	      0.00000000	     16.07636995	    -15.35184480	     -8.26975215	     68.91096231	      1.20272318	    -11.17861675	      0.00000000	      0.00000000	     -6.23001675	      7.97593967	      6.76021741	    -16.26872340	     -4.89859214	    -25.36431313	     45.18165509	     66.82729341	      0.00000000	      0.00000000	     -4.17338542	     -3.22012709	      1.63035767	     49.85203176	     73.46262606	      0.00000000	      0.00000000
